<svg xmlns="http://www.w3.org/2000/svg" viewBox="0 0 48 48">
  <g stroke="none">
  <ellipse cx="24" cy="34.6" rx="18" ry="2" fill="#000" opacity=".32"/>
  <rect x="3" y="10" width="42" height="16" rx="3" fill="#dbe1ea"/>
  <path d="M3.17 12 A3 3 0 0 1 6 10 H42 A3 3 0 0 1 44.83 12 Z" fill="#eef1f6"/>
  <path d="M3.35 24.4 A3 3 0 0 0 6 26 H42 A3 3 0 0 0 44.65 24.4 Z" fill="#bcc4d1"/>
  <rect x="7" y="14.4" width="20" height="1.8" rx="0.9" fill="#bcc4d1"/>
  <circle cx="39.4" cy="15.4" r="1.3" fill="#38cc65"/>
  <path d="M4.6 21.4h38.8v2.4a2.4 2.4 0 0 1-2.4 2.4H7a2.4 2.4 0 0 1-2.4-2.4z" fill="#39414d"/>
  <path d="M11 31c2 0 2 3 4 3s2-3 4-3" fill="none" stroke="#22c1d6" stroke-width="1.8" stroke-linecap="round" opacity=".85"/>
  <path d="M21 31c2 0 2 3 4 3s2-3 4-3" fill="none" stroke="#22c1d6" stroke-width="1.8" stroke-linecap="round" opacity=".85"/>
  <path d="M31 31c2 0 2 3 4 3s2-3 4-3" fill="none" stroke="#22c1d6" stroke-width="1.8" stroke-linecap="round" opacity=".85"/>
  </g>
</svg>
