<svg xmlns="http://www.w3.org/2000/svg" viewBox="0 0 48 48">
  <g stroke="none">
  <ellipse cx="24" cy="39.6" rx="13" ry="2.1" fill="#000" opacity=".32"/>
  <rect x="4" y="20" width="40" height="8" rx="2.4" fill="#99a3b3"/>
  <rect x="4" y="20" width="40" height="2.6" rx="1.3" fill="#bcc4d1"/>
  <rect x="13" y="9" width="22" height="22" rx="4" fill="#dbe1ea"/>
  <path d="M13.54 11 A4 4 0 0 1 17 9 H31 A4 4 0 0 1 34.46 11 Z" fill="#eef1f6"/>
  <path d="M13.8 29.4 A4 4 0 0 0 17 31 H31 A4 4 0 0 0 34.2 29.4 Z" fill="#bcc4d1"/>
  <circle cx="24" cy="20" r="7.6" fill="#161d27"/>
  <circle cx="24" cy="20" r="6.2" fill="#eef1f6"/>
  <path d="M24 15.4c2 2.6 3.2 4.2 3.2 5.6a3.2 3.2 0 0 1-6.4 0c0-1.4 1.2-3 3.2-5.6z" fill="#22c1d6"/>
  </g>
</svg>
