<svg xmlns="http://www.w3.org/2000/svg" viewBox="0 0 48 48">
  <g stroke="none">
  <rect x="5" y="5" width="38" height="38" rx="2.4" fill="#39414d"/>
  <rect x="7" y="7" width="34" height="34" rx="1.4" fill="#1d3550"/>
  <path d="M7 30c6-4 11-2 16 .6 4 2 8 2.6 11 1.4V41H7z" fill="#0a84ff" opacity=".3"/>
  <rect x="5" y="5" width="38" height="4" rx="1.6" fill="#99a3b3"/>
  <rect x="7" y="10.5" width="34" height="2.6" rx="0.6" fill="#dbe1ea"/>
  <rect x="7" y="14.5" width="34" height="2.6" rx="0.6" fill="#dbe1ea"/>
  <rect x="7" y="18.5" width="34" height="2.6" rx="0.6" fill="#dbe1ea"/>
  <rect x="7" y="22.5" width="34" height="2.6" rx="0.6" fill="#dbe1ea"/>
  <rect x="7" y="26.4" width="34" height="2" rx="0.8" fill="#bcc4d1"/>
  <rect x="22.6" y="28.4" width="2.8" height="5" rx="1.4" fill="#99a3b3"/>
  </g>
</svg>
